# xmcd CD database file
#
# Track frame offsets:
#	150
#	17415
#	49292
#	72222
#	90660
#	119390
#	133352
#	156985
#	175420
#	199812
#	216655
#	240617
#
# Disc length: 3491 seconds
#
# Revision: 0
# Processed by: cddbd v1.4PL0 Copyright (c) Steve Scherf et al.
# Submitted via: CDex 1.50beta10
#
DISCID=b50da10c
DTITLE=Big Chief Ellis - Featuring Tarheel Slim, Brownie McGhee and John Cephas
DYEAR=1995
DGENRE=Blues
TTITLE0=Prison Bound
TTITLE1=All Down Blues
TTITLE2=Dices #2
TTITLE3=Louise
TTITLE4=Fare You Well, Mistreater
TTITLE5=How Long Blues
TTITLE6=Let's Talk It Over
TTITLE7=Rocky Mountain Blues
TTITLE8=Hey, Baby
TTITLE9=Sweet Home Chicago
TTITLE10=Chief's Eb Blues
TTITLE11=Blues For Moot
EXTD=YEAR: 1995
EXTT0=
EXTT1=
EXTT2=
EXTT3=
EXTT4=
EXTT5=
EXTT6=
EXTT7=
EXTT8=
EXTT9=
EXTT10=
EXTT11=
PLAYORDER=
